<mxfile host="app.diagrams.net" modified="2024-05-21T00:27:19.636Z" agent="Mozilla/5.0 (Windows NT 10.0; Win64; x64) AppleWebKit/537.36 (KHTML, like Gecko) Chrome/125.0.0.0 Safari/537.36 Edg/125.0.0.0" etag="jUJ9pHgfIEBK8BKbS7hf" version="24.4.4" type="github">
  <diagram name="第 1 页" id="pP4TxrNRhEeJk75uxK3W">
    <mxGraphModel dx="2109" dy="577" grid="1" gridSize="10" guides="1" tooltips="1" connect="1" arrows="1" fold="1" page="1" pageScale="1" pageWidth="827" pageHeight="1169" math="0" shadow="0">
      <root>
        <mxCell id="0" />
        <mxCell id="1" parent="0" />
        <mxCell id="V3aJ24xwNZgGy2kyT4V0-1" value="&lt;font style=&quot;font-size: 14px;&quot;&gt;普通用户&lt;/font&gt;" style="shape=umlActor;verticalLabelPosition=bottom;verticalAlign=top;html=1;outlineConnect=0;" vertex="1" parent="1">
          <mxGeometry x="10" y="320" width="30" height="60" as="geometry" />
        </mxCell>
        <mxCell id="V3aJ24xwNZgGy2kyT4V0-2" value="&lt;font style=&quot;font-size: 14px;&quot;&gt;维护个人信息&lt;/font&gt;" style="ellipse;whiteSpace=wrap;html=1;" vertex="1" parent="1">
          <mxGeometry x="210" y="100" width="160" height="80" as="geometry" />
        </mxCell>
        <mxCell id="V3aJ24xwNZgGy2kyT4V0-4" value="&lt;font style=&quot;font-size: 14px;&quot;&gt;收藏&lt;/font&gt;" style="ellipse;whiteSpace=wrap;html=1;" vertex="1" parent="1">
          <mxGeometry x="210" y="230" width="160" height="80" as="geometry" />
        </mxCell>
        <mxCell id="V3aJ24xwNZgGy2kyT4V0-5" value="&lt;font style=&quot;font-size: 14px;&quot;&gt;购买&lt;/font&gt;" style="ellipse;whiteSpace=wrap;html=1;" vertex="1" parent="1">
          <mxGeometry x="210" y="320" width="160" height="80" as="geometry" />
        </mxCell>
        <mxCell id="V3aJ24xwNZgGy2kyT4V0-6" value="&lt;font style=&quot;font-size: 14px;&quot;&gt;查看&lt;/font&gt;" style="ellipse;whiteSpace=wrap;html=1;" vertex="1" parent="1">
          <mxGeometry x="210" y="505" width="160" height="80" as="geometry" />
        </mxCell>
        <mxCell id="V3aJ24xwNZgGy2kyT4V0-7" value="&lt;font style=&quot;font-size: 14px;&quot;&gt;修改个人信息&lt;/font&gt;" style="ellipse;whiteSpace=wrap;html=1;" vertex="1" parent="1">
          <mxGeometry x="500" y="50" width="190" height="80" as="geometry" />
        </mxCell>
        <mxCell id="V3aJ24xwNZgGy2kyT4V0-8" value="&lt;font style=&quot;font-size: 14px;&quot;&gt;添加、修改、删除地址信息&lt;/font&gt;" style="ellipse;whiteSpace=wrap;html=1;" vertex="1" parent="1">
          <mxGeometry x="500" y="140" width="190" height="80" as="geometry" />
        </mxCell>
        <mxCell id="V3aJ24xwNZgGy2kyT4V0-9" value="" style="endArrow=classic;html=1;rounded=0;exitX=1;exitY=0.3333333333333333;exitDx=0;exitDy=0;exitPerimeter=0;entryX=0;entryY=0.5;entryDx=0;entryDy=0;" edge="1" parent="1" source="V3aJ24xwNZgGy2kyT4V0-1" target="V3aJ24xwNZgGy2kyT4V0-2">
          <mxGeometry width="50" height="50" relative="1" as="geometry">
            <mxPoint x="-10" y="450" as="sourcePoint" />
            <mxPoint x="40" y="400" as="targetPoint" />
          </mxGeometry>
        </mxCell>
        <mxCell id="V3aJ24xwNZgGy2kyT4V0-10" value="" style="endArrow=classic;html=1;rounded=0;exitX=1;exitY=0.3333333333333333;exitDx=0;exitDy=0;exitPerimeter=0;entryX=0;entryY=0.5;entryDx=0;entryDy=0;" edge="1" parent="1" source="V3aJ24xwNZgGy2kyT4V0-1" target="V3aJ24xwNZgGy2kyT4V0-4">
          <mxGeometry width="50" height="50" relative="1" as="geometry">
            <mxPoint x="70" y="470" as="sourcePoint" />
            <mxPoint x="120" y="420" as="targetPoint" />
          </mxGeometry>
        </mxCell>
        <mxCell id="V3aJ24xwNZgGy2kyT4V0-11" value="" style="endArrow=classic;html=1;rounded=0;exitX=1;exitY=0.3333333333333333;exitDx=0;exitDy=0;exitPerimeter=0;entryX=0;entryY=0.5;entryDx=0;entryDy=0;" edge="1" parent="1" source="V3aJ24xwNZgGy2kyT4V0-1" target="V3aJ24xwNZgGy2kyT4V0-5">
          <mxGeometry width="50" height="50" relative="1" as="geometry">
            <mxPoint x="10" y="470" as="sourcePoint" />
            <mxPoint x="60" y="420" as="targetPoint" />
          </mxGeometry>
        </mxCell>
        <mxCell id="V3aJ24xwNZgGy2kyT4V0-12" value="" style="endArrow=classic;html=1;rounded=0;exitX=1;exitY=0.3333333333333333;exitDx=0;exitDy=0;exitPerimeter=0;entryX=0;entryY=0.5;entryDx=0;entryDy=0;" edge="1" parent="1" source="V3aJ24xwNZgGy2kyT4V0-1" target="V3aJ24xwNZgGy2kyT4V0-6">
          <mxGeometry width="50" height="50" relative="1" as="geometry">
            <mxPoint x="70" y="480" as="sourcePoint" />
            <mxPoint x="120" y="430" as="targetPoint" />
          </mxGeometry>
        </mxCell>
        <mxCell id="V3aJ24xwNZgGy2kyT4V0-13" value="&lt;font style=&quot;font-size: 14px;&quot;&gt;收藏、取消收藏生物信息&lt;/font&gt;" style="ellipse;whiteSpace=wrap;html=1;" vertex="1" parent="1">
          <mxGeometry x="500" y="230" width="190" height="80" as="geometry" />
        </mxCell>
        <mxCell id="V3aJ24xwNZgGy2kyT4V0-14" value="&lt;font style=&quot;font-size: 14px;&quot;&gt;购买商品&lt;/font&gt;" style="ellipse;whiteSpace=wrap;html=1;" vertex="1" parent="1">
          <mxGeometry x="500" y="320" width="190" height="80" as="geometry" />
        </mxCell>
        <mxCell id="V3aJ24xwNZgGy2kyT4V0-16" value="&lt;font style=&quot;font-size: 14px;&quot;&gt;查看物种信息&lt;/font&gt;" style="ellipse;whiteSpace=wrap;html=1;" vertex="1" parent="1">
          <mxGeometry x="500" y="410" width="190" height="80" as="geometry" />
        </mxCell>
        <mxCell id="V3aJ24xwNZgGy2kyT4V0-17" value="&lt;font style=&quot;font-size: 14px;&quot;&gt;查看商品&lt;/font&gt;" style="ellipse;whiteSpace=wrap;html=1;" vertex="1" parent="1">
          <mxGeometry x="500" y="504.5" width="190" height="80" as="geometry" />
        </mxCell>
        <mxCell id="V3aJ24xwNZgGy2kyT4V0-18" value="&lt;font style=&quot;font-size: 14px;&quot;&gt;查看订单&lt;/font&gt;" style="ellipse;whiteSpace=wrap;html=1;" vertex="1" parent="1">
          <mxGeometry x="500" y="590" width="190" height="80" as="geometry" />
        </mxCell>
        <mxCell id="V3aJ24xwNZgGy2kyT4V0-21" value="&lt;font style=&quot;font-size: 14px;&quot;&gt;&amp;lt;&amp;lt;include&amp;gt;&amp;gt;&lt;/font&gt;" style="endArrow=open;endSize=12;dashed=1;html=1;rounded=0;exitX=1;exitY=0.5;exitDx=0;exitDy=0;entryX=0;entryY=0.5;entryDx=0;entryDy=0;" edge="1" parent="1" source="V3aJ24xwNZgGy2kyT4V0-2" target="V3aJ24xwNZgGy2kyT4V0-7">
          <mxGeometry width="160" relative="1" as="geometry">
            <mxPoint x="270" y="610" as="sourcePoint" />
            <mxPoint x="430" y="610" as="targetPoint" />
          </mxGeometry>
        </mxCell>
        <mxCell id="V3aJ24xwNZgGy2kyT4V0-22" value="&lt;font style=&quot;font-size: 14px;&quot;&gt;&amp;lt;&amp;lt;include&amp;gt;&amp;gt;&lt;/font&gt;" style="endArrow=open;endSize=12;dashed=1;html=1;rounded=0;exitX=1;exitY=0.5;exitDx=0;exitDy=0;entryX=0;entryY=0.5;entryDx=0;entryDy=0;" edge="1" parent="1" source="V3aJ24xwNZgGy2kyT4V0-2" target="V3aJ24xwNZgGy2kyT4V0-8">
          <mxGeometry width="160" relative="1" as="geometry">
            <mxPoint x="270" y="610" as="sourcePoint" />
            <mxPoint x="430" y="610" as="targetPoint" />
          </mxGeometry>
        </mxCell>
        <mxCell id="V3aJ24xwNZgGy2kyT4V0-23" value="&lt;font style=&quot;font-size: 14px;&quot;&gt;&amp;lt;&amp;lt;include&amp;gt;&amp;gt;&lt;/font&gt;" style="endArrow=open;endSize=12;dashed=1;html=1;rounded=0;" edge="1" parent="1" source="V3aJ24xwNZgGy2kyT4V0-4" target="V3aJ24xwNZgGy2kyT4V0-13">
          <mxGeometry width="160" relative="1" as="geometry">
            <mxPoint x="270" y="610" as="sourcePoint" />
            <mxPoint x="430" y="610" as="targetPoint" />
          </mxGeometry>
        </mxCell>
        <mxCell id="V3aJ24xwNZgGy2kyT4V0-24" value="&lt;font style=&quot;font-size: 14px;&quot;&gt;&amp;lt;&amp;lt;include&amp;gt;&amp;gt;&lt;/font&gt;" style="endArrow=open;endSize=12;dashed=1;html=1;rounded=0;" edge="1" parent="1" source="V3aJ24xwNZgGy2kyT4V0-5" target="V3aJ24xwNZgGy2kyT4V0-14">
          <mxGeometry width="160" relative="1" as="geometry">
            <mxPoint x="270" y="610" as="sourcePoint" />
            <mxPoint x="430" y="610" as="targetPoint" />
          </mxGeometry>
        </mxCell>
        <mxCell id="V3aJ24xwNZgGy2kyT4V0-25" value="&lt;font style=&quot;font-size: 14px;&quot;&gt;&amp;lt;&amp;lt;include&amp;gt;&amp;gt;&lt;/font&gt;" style="endArrow=open;endSize=12;dashed=1;html=1;rounded=0;exitX=1;exitY=0.5;exitDx=0;exitDy=0;entryX=0;entryY=0.5;entryDx=0;entryDy=0;" edge="1" parent="1" source="V3aJ24xwNZgGy2kyT4V0-6" target="V3aJ24xwNZgGy2kyT4V0-16">
          <mxGeometry width="160" relative="1" as="geometry">
            <mxPoint x="270" y="610" as="sourcePoint" />
            <mxPoint x="430" y="610" as="targetPoint" />
          </mxGeometry>
        </mxCell>
        <mxCell id="V3aJ24xwNZgGy2kyT4V0-26" value="&lt;font style=&quot;font-size: 14px;&quot;&gt;&amp;lt;&amp;lt;include&amp;gt;&amp;gt;&lt;/font&gt;" style="endArrow=open;endSize=12;dashed=1;html=1;rounded=0;exitX=1;exitY=0.5;exitDx=0;exitDy=0;" edge="1" parent="1" source="V3aJ24xwNZgGy2kyT4V0-6" target="V3aJ24xwNZgGy2kyT4V0-17">
          <mxGeometry width="160" relative="1" as="geometry">
            <mxPoint x="270" y="610" as="sourcePoint" />
            <mxPoint x="430" y="610" as="targetPoint" />
          </mxGeometry>
        </mxCell>
        <mxCell id="V3aJ24xwNZgGy2kyT4V0-27" value="&lt;font style=&quot;font-size: 14px;&quot;&gt;&amp;lt;&amp;lt;include&amp;gt;&amp;gt;&lt;/font&gt;" style="endArrow=open;endSize=12;dashed=1;html=1;rounded=0;exitX=1;exitY=0.5;exitDx=0;exitDy=0;entryX=0;entryY=0.5;entryDx=0;entryDy=0;" edge="1" parent="1" source="V3aJ24xwNZgGy2kyT4V0-6" target="V3aJ24xwNZgGy2kyT4V0-18">
          <mxGeometry width="160" relative="1" as="geometry">
            <mxPoint x="270" y="610" as="sourcePoint" />
            <mxPoint x="430" y="610" as="targetPoint" />
            <mxPoint as="offset" />
          </mxGeometry>
        </mxCell>
      </root>
    </mxGraphModel>
  </diagram>
</mxfile>
